<svg width="800" height="600" xmlns="http://www.w3.org/2000/svg">
 <g>
  <title>background</title>
  <rect x="-1" y="-1" width="802" height="602" id="canvas_background" fill="none"/>
 </g>

 <g>
  <title>Layer 1</title>
  <path d="m85.511812,133.023617a48.51181,48.51181 0 0 1 0,-97.02362l441.52777,0a48.51181,48.51181 0 0 1 0,97.02362l-441.52777,0z" fill="#e6e6e6" id="svg_3"/>
  <rect x="131.68018" y="42.32763" width="86.36017" height="84.36837" fill="#fff" id="svg_4"/>
  <path d="m527.039582,42.327617l-44.645,0l0,84.36837l44.645,0a42.18418,42.18418 0 1 0 0,-84.36837z" fill="#fff" id="svg_5"/>
  <rect x="307.33021" y="42.32763" width="85.77451" height="84.36837" fill="#fff" id="svg_6"/>
  <rect x="219.44649" y="42.32763" width="86.47758" height="84.36837" fill="#e84a5f" id="svg_7"/>
  <rect x="394.51085" y="42.32763" width="86.47758" height="84.36837" fill="#e6e6e6" id="svg_8"/>
  <path d="m130.274042,42.327617l-44.76228,0a42.18418,42.18418 0 1 0 0,84.36837l44.76224,0l0.00004,-84.36837z" fill="#e84a5f" id="svg_9"/>
  <polygon points="82.40798950195312,100.73500061035156 70.66299438476562,85.63600158691406 77.49299621582031,80.32300567626953 83.05300903320312,87.4729995727539 101.8389892578125,67.64400482177734 108.1199951171875,73.59500122070312 82.40798950195312,100.73500061035156 " fill="#fff" id="svg_10"/>
  <polygon points="255.36300659179688,100.73500061035156 243.61798095703125,85.63600158691406 250.447998046875,80.32300567626953 256.00799560546875,87.4729995727539 274.79400634765625,67.64400482177734 281.07501220703125,73.59500122070312 255.36300659179688,100.73500061035156 " fill="#fff" id="svg_11"/>
  <rect x="465.343965" y="475.341119" width="5.5092" height="37.0121" fill="#fff" id="svg_12"/>
  <rect x="451.373398" y="492.066568" width="37.0121" height="5.5092" fill="#fff" id="svg_13"/>
  <path d="m174.690942,109.805707a25.31051,25.31051 0 1 1 25.31051,-25.31051a25.33906,25.33906 0 0 1 -25.31051,25.31051zm0,-44.99646a19.686,19.686 0 1 0 19.68595,19.686a19.70807,19.70807 0 0 0 -19.68595,-19.686z" fill="#e6e6e6" id="svg_14"/>
  <path d="m350.458372,109.805707a25.31051,25.31051 0 1 1 25.31051,-25.31051a25.33906,25.33906 0 0 1 -25.31051,25.31051zm0,-44.99646a19.686,19.686 0 1 0 19.68595,19.686a19.70807,19.70807 0 0 0 -19.68595,-19.686z" fill="#e6e6e6" id="svg_15"/>
  <path d="m525.522762,109.805707a25.31051,25.31051 0 1 1 25.31051,-25.31051a25.33906,25.33906 0 0 1 -25.31051,25.31051zm0,-44.99646a19.686,19.686 0 1 0 19.686,19.686a19.70807,19.70807 0 0 0 -19.686,-19.686z" fill="#e6e6e6" id="svg_16"/>
  <path d="m715.858292,343.442487l-10.62585,29.64052a10.34739,10.34739 0 0 0 4.37745,12.341l0,0a10.34739,10.34739 0 0 0 15.64572,-7.69444l3.37227,-30.03053l25.53922,-84.42132l-21.99209,-10.64135l-16.31672,90.80612z" fill="#a0616a" id="svg_17"/>
  <polygon points="706.9910278320312,567.2650146484375 722.5980224609375,567.2650146484375 722.5980224609375,415.4490051269531 687.1270141601562,414.739013671875 706.9910278320312,567.2650146484375 " fill="#a0616a" id="svg_18"/>
  <polygon points="637.4669799804688,567.2650146484375 653.073974609375,567.2650146484375 653.073974609375,415.4490051269531 617.60302734375,414.739013671875 637.4669799804688,567.2650146484375 " fill="#a0616a" id="svg_19"/>
  <path d="m725.080762,431.410927l-40.43711,-4.25654l-8.51307,-44.69364l-15.60731,45.40306l-48.24075,-4.966l19.86387,-75.19874c36.30995,-24.67316 70.79615,-24.13361 103.57574,0l-10.64137,83.71186z" fill="#2f2e41" id="svg_20"/>
  <path d="m656.521002,573.731067a12.67411,12.67411 0 0 1 -14.27955,14.13116l-28.75209,-3.89946a9.82627,9.82627 0 0 1 -8.19677,-11.2029l0,0a9.82627,9.82627 0 0 1 9.712,-8.33211l4.74057,0l15.5969,-14.21051c0.15379,9.67931 7.2821,7.52995 19.06287,6.58536l2.11607,16.92846z" fill="#2f2e41" id="svg_21"/>
  <path d="m726.044442,573.731067a12.67411,12.67411 0 0 1 -14.27955,14.13116l-28.75213,-3.89948a9.82627,9.82627 0 0 1 -8.19677,-11.2029l0,0a9.82627,9.82627 0 0 1 9.712,-8.33211l4.74057,0l15.5969,-14.21051c0.15379,9.67931 7.2821,7.52995 19.06287,6.58536l2.11611,16.92848z" fill="#2f2e41" id="svg_22"/>
  <circle cx="670.63258" cy="148.17385" r="25.00716" fill="#a0616a" id="svg_23"/>
  <polygon points="702.3790283203125,190.20700073242188 671.1649780273438,193.0449981689453 671.1649780273438,165.3769989013672 687.4810180664062,155.44500732421875 702.3790283203125,190.20700073242188 " fill="#a0616a" id="svg_24"/>
  <path d="m739.269242,358.340367c-31.40278,-22.99491 -69.10967,-20.65841 -110.67,-2.83769c18.82984,-53.30557 26.85059,-102.985 12.06018,-145.01157a33.436,33.436 0 0 1 25.14947,-32.39292l5.35572,-1.37007l26.24864,1.41884l24.64823,14.449a33.555,33.555 0 0 1 16.58528,28.79526l0.62248,136.94915z" fill="#e84a5f" id="svg_25"/>
  <path d="m617.957932,337.767067l-10.62584,29.64052a10.34738,10.34738 0 0 0 4.37744,12.341l0,0a10.34738,10.34738 0 0 0 15.64571,-7.69443l3.37227,-30.03053l25.53925,-84.4213l-21.9921,-10.64135l-16.31673,90.80609z" fill="#a0616a" id="svg_26"/>
  <path d="m759.842512,279.594427l-34.76175,0l0,-85.13074l0,0a47.95711,47.95711 0 0 1 23.64788,32.08749l11.11387,53.04325z" fill="#e84a5f" id="svg_27"/>
  <path d="m651.566672,134.633957a10.18217,10.18217 0 0 1 -9.66538,-0.523a7.705,7.705 0 0 1 -3.07332,-8.83245c1.0544,-2.71107 3.72255,-4.40874 6.31141,-5.73513a63.70442,63.70442 0 0 1 18.15276,-6.06395c3.014,-0.52152 6.20577,-0.8082 9.0545,0.30589c1.40954,0.55125 2.67346,1.42439 4.07257,2.00156c2.57261,1.06127 5.44252,1.06591 8.16522,1.64159a19.92323,19.92323 0 0 1 13.23533,9.9163a24.00724,24.00724 0 0 1 2.04864,5.3776a30.94533,30.94533 0 0 1 -0.04985,15.57471c-2.14128,8.08308 -7.59126,15.50989 -7.10076,23.85741c-4.02949,-2.34645 -5.917,-7.1238 -9.2818,-10.352a15.2743,15.2743 0 0 0 -9.18029,-4.158a4.85548,4.85548 0 0 1 -2.68043,-0.68249a4.18309,4.18309 0 0 1 -1.166,-2.10784l-3.79068,-11.87319c-0.77146,-2.41636 -1.70321,-5.0417 -3.8836,-6.33781a9.77178,9.77178 0 0 0 -4.33638,-1.05378a66.02557,66.02557 0 0 0 -10.82686,0.10171" fill="#2f2e41" id="svg_28"/>
  <path d="m659.813882,263.987127l-40.4371,-15.6073l18.36389,-49.48047a31.94213,31.94213 0 0 1 27.74857,-20.75239l0,0l-5.67536,85.84016z" fill="#e84a5f" id="svg_29"/>
 </g>
</svg>